Coordinates
version=1
nRows=8
nColumns=36
inDegrees=yes

Units are S.I. units (second, meters, Newtons, ...)
If the header above contains a line with 'inDegrees', this indicates whether rotational values are in degrees (yes) or radians (no).

endheader
time	pelvis_tilt	pelvis_list	pelvis_rotation	pelvis_tx	pelvis_ty	pelvis_tz	hip_flexion_r	hip_adduction_r	hip_rotation_r	knee_angle_r	knee_angle_r_beta	ankle_angle_r	subtalar_angle_r	mtp_angle_r	hip_flexion_l	hip_adduction_l	hip_rotation_l	knee_angle_l	knee_angle_l_beta	ankle_angle_l	subtalar_angle_l	mtp_angle_l	lumbar_extension	lumbar_bending	lumbar_rotation	arm_flex_r	arm_add_r	arm_rot_r	elbow_flex_r	pro_sup_r	arm_flex_l	arm_add_l	arm_rot_l	elbow_flex_l	pro_sup_l
      2.49583330	    -10.22324815	     -2.14411186	      6.21946097	      0.20990635	      0.73141997	     -0.04037173	     62.72454823	     -5.65829635	     11.54760474	     68.96055802	      1.20358879	     15.73707891	    -13.99141456	     -7.49999987	     65.96036531	     -4.94290545	      3.03102103	     68.01007924	      1.18699981	     13.18653135	    -13.99908213	     -7.49999987	    -22.83566234	     -1.44053536	     -7.07134274	      5.25328392	    -20.77306129	     -9.12319607	    121.21801698	     86.66346707	     24.81318391	    -33.18636152	    -10.08204506	    112.43206981	     78.49696142
      2.50000000	    -10.90153306	     -2.44243927	      5.96480005	      0.21979155	      0.73098563	     -0.05104993	     63.41888555	     -6.06631433	     11.44129771	     69.08903844	      1.20583120	     15.21845515	    -14.12799727	     -7.49999987	     66.74179171	     -4.39755620	      3.52702414	     68.36453246	      1.19318618	     12.89524173	    -14.92601016	     -7.49999987	    -23.07729231	     -1.18749669	     -6.56664299	      6.95398227	    -21.85338403	     -8.31135193	    118.57995078	     86.71355495	     25.69925472	    -31.19783414	     -9.14414529	    111.30599194	     78.58270372
      2.50416670	    -11.76798624	     -2.63672046	      5.97766279	      0.21534496	      0.72380247	     -0.04598358	     64.67883771	     -6.32478151	     11.44508764	     69.49140444	      1.21285381	     14.81835209	    -14.28402037	     -7.49999987	     68.13348761	     -4.11916138	      3.78309088	     69.05619972	      1.20525805	     13.25198458	    -15.09448029	     -7.49999987	    -23.23195211	     -1.20313337	     -6.46035171	      8.51491665	    -22.82590413	     -7.83224359	    115.86853572	     86.34598714	     27.24247668	    -30.17432153	     -7.75351415	    110.42440560	     78.49705646
      2.50833330	    -12.56248907	     -2.77684315	      6.10131528	      0.21746587	      0.71973693	     -0.03774425	     66.15014865	     -6.22778421	     11.33851432	     70.39820400	      1.22868045	     14.80979647	    -14.97453132	     -7.49999987	     69.46603677	     -4.11178861	      4.25439305	     69.78784993	      1.21802776	     13.00206730	    -15.46476210	     -7.49999987	    -23.39713950	     -1.24084678	     -6.11197909	      9.54646916	    -23.37093295	     -7.70885257	    114.17624260	     86.30896372	     28.99404286	    -29.20002027	     -6.42416968	    109.57913260	     78.67665945
      2.51250000	    -13.46554328	     -2.87763392	      5.92136471	      0.22097780	      0.71646314	     -0.04160317	     67.34600996	     -6.04710168	     11.25315669	     71.19602801	      1.24260510	     14.66167960	    -15.87207895	     -7.49999987	     70.70535762	     -4.14053524	      4.50302818	     70.55431401	      1.23140508	     13.27558422	    -15.55945153	     -7.49999987	    -23.25350271	     -0.98396930	     -5.59430034	     10.89849980	    -23.83214413	     -7.23245301	    113.17717807	     86.33418184	     30.56356316	    -27.75065359	     -5.74616522	    108.57860407	     78.76459095
      2.51666670	    -14.29422030	     -2.72911475	      5.75865300	      0.21776564	      0.71568702	     -0.04604998	     68.38751919	     -6.51735296	     11.18152497	     71.35978636	      1.24546323	     14.46801235	    -16.20466433	     -7.49999987	     71.74901982	     -3.88624905	      4.29028846	     70.91012200	      1.23761510	     13.53531799	    -15.87883005	     -7.49999987	    -23.81919367	     -0.66743930	     -5.29616289	     12.70053821	    -23.55761107	     -7.06634219	    113.22920754	     86.35114439	     31.90442895	    -27.14877068	     -5.54892351	    108.42943482	     78.77622912
      2.52083330	    -14.84999228	     -2.92243657	      5.85704516	      0.21372458	      0.71840815	     -0.04018560	     68.90219454	     -6.51262788	     11.01201838	     71.06026742	      1.24023563	     13.31568609	    -17.61471437	     -7.49999987	     72.42064131	     -3.91434219	      4.56880645	     70.63381541	      1.23279264	     12.82938512	    -16.02810081	     -7.49999987	    -24.13413504	     -0.40872688	     -4.68072209	     14.89267219	    -24.13751562	     -4.93653684	    110.96767599	     86.58310546	     34.65082396	    -26.55204026	     -3.26672999	    105.34352350	     78.98366474
      2.52500000	    -15.42349510	     -3.06518156	      5.77828617	      0.21481681	      0.71133770	     -0.04110794	     69.94764047	     -6.65416698	     10.64331169	     71.52679507	      1.24837808	     12.81923534	    -18.57782155	     -7.49999987	     73.61059791	     -4.06635914	      4.68405540	     71.16067952	      1.24198816	     12.96870612	    -15.73039509	     -7.49999987	    -24.52295679	     -0.10954632	     -4.06687593	     16.95352899	    -25.06715248	     -3.58441022	    109.86132486	     86.65616429	     36.54872687	    -26.46753968	     -2.36156865	    103.53582565	     79.02702552
